#!OML:ASF E:\motion texture\Top Level 1\Subject 1\Session 1\male.ASF
:FULLY-SPECIFIED
:DEGREES
466
root -21.4466 18.049 -0.873687 129.463 -87.9641 -123.908
lowerback 0.211018 -3.50199 1.47559
upperback -1.37959 -4.66179 2.89609
thorax -1.409 -2.34796 2.20922
lowerneck -10.8447 -9.81462 -12.7744
upperneck 13.9634 -12.7282 8.66778
head 7.44896 -6.15916 3.51845
rclavicle -3.77691e-015 9.54166e-015
rhumerus -26.399 -9.2775 -74.5465
rradius 39.6224
rwrist 3.92506
rhand -17.4017 -29.0789
rfingers 7.12502
rthumb 8.84768 -58.8734
lclavicle -3.77691e-015 9.54166e-015
lhumerus -23.9723 15.018 79.4761
lradius 30.2583
lwrist -23.9892
lhand -13.8063 25.0762
lfingers 7.12502
lthumb 12.3158 54.6935
rfemur -26.6839 2.57082 18.4459
rtibia 55.1764
rfoot -2.05468 -17.2564
rtoes -3.76398
lfemur -10.4556 -0.498425 -18.3773
ltibia 18.0826
lfoot -8.37949 3.15028
ltoes -4.18655
467
root -21.5631 18.0551 -0.835764 129.557 -88.0752 -124.004
lowerback 0.181034 -3.59392 1.33984
upperback -1.39766 -4.78638 2.93153
thorax -1.39336 -2.40879 2.32062
lowerneck -10.8842 -9.77672 -12.754
upperneck 13.9835 -12.6612 8.58854
head 7.4481 -6.13102 3.49671
rclavicle -5.71506e-015 -1.51076e-014
rhumerus -26.5486 -8.92658 -74.8494
rradius 40.2255
rwrist 3.90631
rhand -17.4411 -28.9087
rfingers 7.12502
rthumb 8.8097 -58.7048
lclavicle -5.71506e-015 -1.51076e-014
lhumerus -23.4616 14.1659 79.9951
lradius 30.7347
lwrist -23.4087
lhand -13.8769 25.1278
lfingers 7.12502
lthumb 12.2478 54.7492
rfemur -27.2129 2.24181 18.5163
rtibia 54.3634
rfoot -2.40176 -17.6933
rtoes -3.38672
lfemur -9.87146 -0.463573 -18.654
ltibia 17.8023
lfoot -8.52719 3.06468
ltoes -4.26336
468
root -21.6794 18.0607 -0.799094 129.187 -88.1888 -123.623
lowerback 0.140935 -3.68358 1.20994
upperback -1.41963 -4.90813 2.96881
thorax -1.37578 -2.46832 2.42989
lowerneck -10.9214 -9.74455 -12.737
upperneck 13.9978 -12.6022 8.51403
head 7.44643 -6.10652 3.47612
rclavicle 1.25234e-014 4.77083e-015
rhumerus -26.7209 -8.58688 -75.1492
rradius 40.8367
rwrist 3.8956
rhand -17.48 -28.7405
rfingers 7.12502
rthumb 8.77212 -58.5382
lclavicle 1.25234e-014 4.77083e-015
lhumerus -22.9702 13.2926 80.5084
lradius 31.2336
lwrist -22.8003
lhand -13.9392 25.178
lfingers 7.12502
lthumb 12.1877 54.803
rfemur -27.7014 1.91923 18.6076
rtibia 53.4083
rfoot -2.79007 -18.1008
rtoes -3.03056
lfemur -9.30192 -0.434064 -18.9159
ltibia 17.5167
lfoot -8.66584 2.97496
ltoes -4.33839
469
root -21.7956 18.0658 -0.763693 128.299 -88.3034 -122.708
lowerback 0.0900941 -3.77095 1.08563
upperback -1.44482 -5.02699 3.00807
thorax -1.35521 -2.52654 2.5372
lowerneck -10.9557 -9.7175 -12.7244
upperneck 14.0046 -12.5504 8.44663
head 7.44343 -6.0852 3.4577
rclavicle 8.00108e-015 1.27222e-014
rhumerus -26.913 -8.25675 -75.4466
rradius 41.4562
rwrist 3.89154
rhand -17.5146 -28.5806
rfingers 7.12502
rthumb 8.73876 -58.3797
lclavicle 8.00108e-015 1.27222e-014
lhumerus -22.495 12.4029 81.0155
lradius 31.7502
lwrist -22.1656
lhand -13.9945 25.2246
lfingers 7.12502
lthumb 12.1344 54.8527
rfemur -28.1518 1.60626 18.7187
rtibia 52.3195
rfoot -3.21647 -18.479
rtoes -2.67954
lfemur -8.74903 -0.407254 -19.1618
ltibia 17.2296
lfoot -8.79806 2.88052
ltoes -4.41233
470
root -21.9116 18.0703 -0.729496 126.818 -88.4193 -121.187
lowerback 0.0307979 -3.85586 0.965535
upperback -1.47437 -5.14265 3.04903
thorax -1.33407 -2.58324 2.64322
lowerneck -10.9882 -9.6957 -12.7145
upperneck 14.0061 -12.5059 8.3832
head 7.43972 -6.06719 3.44013
rclavicle -2.68359e-015 2.54444e-014
rhumerus -27.1243 -7.93861 -75.7396
rradius 42.0814
rwrist 3.89465
rhand -17.554 -28.4145
rfingers 7.12502
rthumb 8.70077 -58.2152
lclavicle -2.68359e-015 2.54444e-014
lhumerus -22.0408 11.5007 81.5167
lradius 32.287
lwrist -21.5064
lhand -14.0391 25.269
lfingers 7.12502
lthumb 12.0914 54.8996
rfemur -28.5657 1.30218 18.8461
rtibia 51.1068
rfoot -3.67065 -18.8254
rtoes -2.33711
lfemur -8.21317 -0.382684 -19.394
ltibia 16.9429
lfoot -8.92503 2.78052
ltoes -4.48498
471
root -22.0275 18.0741 -0.696438 124.636 -88.5347 -118.95
lowerback -0.037036 -3.93812 0.850805
upperback -1.5082 -5.25482 3.09113
thorax -1.31245 -2.63831 2.74672
lowerneck -11.0185 -9.679 -12.7075
upperneck 14.0019 -12.4686 8.32494
head 7.43515 -6.05239 3.42385
rclavicle 1.90833e-014 -1.59028e-015
rhumerus -27.3539 -7.63129 -76.0287
rradius 42.7137
rwrist 3.90326
rhand -17.5892 -28.2578
rfingers 7.12502
rthumb 8.66679 -58.0599
lclavicle 1.90833e-014 -1.59028e-015
lhumerus -21.6049 10.5879 82.0115
lradius 32.8393
lwrist -20.8238
lhand -14.0699 25.3136
lfingers 7.12502
lthumb 12.0617 54.946
rfemur -28.9457 1.0064 18.9889
rtibia 49.7794
rfoot -4.12897 -19.1348
rtoes -2.02686
lfemur -7.69486 -0.358921 -19.6126
ltibia 16.6583
lfoot -9.04844 2.67425
ltoes -4.55831
472
root -22.1432 18.0772 -0.664497 121.66 -88.6481 -115.907
lowerback -0.113139 -4.01747 0.739846
upperback -1.546 -5.36314 3.13387
thorax -1.29015 -2.69154 2.84805
lowerneck -11.0461 -9.66695 -12.7025
upperneck 13.9905 -12.4381 8.27221
head 7.429 -6.04054 3.40896
rclavicle -2.96189e-014 6.04305e-014
rhumerus -27.5981 -7.33542 -76.3136
rradius 43.3508
rwrist 3.91793
rhand -17.6249 -28.1
rfingers 7.12502
rthumb 8.63231 -57.9035
lclavicle -2.96189e-014 6.04305e-014
lhumerus -21.1862 9.66704 82.5001
lradius 33.4054
lwrist -20.1189
lhand -14.0864 25.3604
lfingers 7.12502
lthumb 12.0458 54.9938
rfemur -29.2965 0.717963 19.1448
rtibia 48.3521
rfoot -4.57337 -19.4048
rtoes -1.76209
lfemur -7.19576 -0.334917 -19.8188
ltibia 16.3781
lfoot -9.16919 2.56234
ltoes -4.6321
473
root -22.2589 18.0796 -0.633605 117.767 -88.7579 -111.932
lowerback -0.196232 -4.09368 0.631845
upperback -1.58745 -5.46726 3.17638
thorax -1.26763 -2.74272 2.94686
lowerneck -11.0703 -9.6598 -12.7004
upperneck 13.971 -12.4148 8.22653
head 7.42114 -6.03178 3.39604
rclavicle -7.70291e-015 -9.54166e-015
rhumerus -27.8565 -7.05048 -76.5946
rradius 43.9947
rwrist 3.93752
rhand -17.6607 -27.9438
rfingers 7.12502
rthumb 8.59782 -57.7488
lclavicle -7.70291e-015 -9.54166e-015
lhumerus -20.7851 8.74007 82.9828
lradius 33.9835
lwrist -19.3934
lhand -14.0894 25.4081
lfingers 7.12502
lthumb 12.0429 55.0416
rfemur -29.6191 0.436154 19.3114
rtibia 46.8384
rfoot -4.99018 -19.6394
rtoes -1.55896
lfemur -6.71488 -0.309089 -20.0147
ltibia 16.1041
lfoot -9.28955 2.44267
ltoes -4.70549
474
root -22.3745 18.0811 -0.603698 112.795 -88.8622 -106.867
lowerback -0.284795 -4.16697 0.525555
upperback -1.63198 -5.56742 3.2177
thorax -1.24518 -2.79195 3.04293
lowerneck -11.0929 -9.65703 -12.6996
upperneck 13.9444 -12.398 8.18702
head 7.41188 -6.02571 3.38461
rclavicle 1.71949e-014 -4.6118e-014
rhumerus -28.1274 -6.7736 -76.8724
rradius 44.6459
rwrist 3.96073
rhand -17.6971 -27.7913
rfingers 7.12502
rthumb 8.56262 -57.5977
lclavicle 1.71949e-014 -4.6118e-014
lhumerus -20.4008 7.80845 83.4595
lradius 34.5714
lwrist -18.6483
lhand -14.08 25.4579
lfingers 7.12502
lthumb 12.052 55.0909
rfemur -29.9141 0.161951 19.4853
rtibia 45.2524
rfoot -5.37537 -19.8389
rtoes -1.41926
lfemur -6.25153 -0.280191 -20.2028
ltibia 15.838
lfoot -9.41033 2.31518
ltoes -4.7796
475
root -22.4901 18.0817 -0.574753 106.494 -88.9572 -100.462
lowerback -0.37853 -4.23773 0.420653
upperback -1.67935 -5.66413 3.25775
thorax -1.2227 -2.83948 3.13639
lowerneck -11.1133 -9.65839 -12.7004
upperneck 13.9104 -12.3875 8.15441
head 7.40111 -6.02218 3.37499
rclavicle 1.65985e-014 -1.35174e-014
rhumerus -28.4069 -6.50718 -77.1466
rradius 45.3019
rwrist 3.99285
rhand -17.7332 -27.6403
rfingers 7.12502
rthumb 8.52782 -57.448
lclavicle 1.65985e-014 -1.35174e-014
lhumerus -20.0333 6.87419 83.9306
lradius 35.168
lwrist -17.8844
lhand -14.0579 25.5118
lfingers 7.12502
lthumb 12.0733 55.1435
rfemur -30.1837 -0.105125 19.6659
rtibia 43.6098
rfoot -5.72397 -20.0047
rtoes -1.34637
lfemur -5.80631 -0.24698 -20.3828
ltibia 15.5818
lfoot -9.5325 2.1782
ltoes -4.85356
476
root -22.6058 18.0813 -0.546689 98.6596 -89.0398 -92.5116
lowerback -0.47733 -4.30615 0.315175
upperback -1.72927 -5.75762 3.2953
thorax -1.19994 -2.88538 3.22704
lowerneck -11.1334 -9.66398 -12.7018
upperneck 13.87 -12.3833 8.12785
head 7.38929 -6.02115 3.36668
rclavicle -1.65488e-014 1.11319e-014
rhumerus -28.6908 -6.25418 -77.417
rradius 45.9593
rwrist 4.0363
rhand -17.7693 -27.4913
rfingers 7.12502
rthumb 8.493 -57.3005
lclavicle -1.65488e-014 1.11319e-014
lhumerus -19.6791 5.93729 84.3964
lradius 35.7688
lwrist -17.1023
lhand -14.0247 25.5701
lfingers 7.12502
lthumb 12.1053 55.1999
rfemur -30.43 -0.365471 19.8492
rtibia 41.9254
rfoot -6.0327 -20.1416
rtoes -1.3072
lfemur -5.38002 -0.209297 -20.5587
ltibia 15.3376
lfoot -9.65668 2.03114
ltoes -4.92809
477
root -22.7214 18.08 -0.51949 89.1681 -89.1039 -82.8943
lowerback -0.579667 -4.37263 0.2081
upperback -1.78112 -5.84838 3.33013
thorax -1.17703 -2.92989 3.31533
lowerneck -11.1539 -9.67334 -12.7038
upperneck 13.823 -12.3847 8.10794
head 7.37651 -6.02226 3.35993
rclavicle -1.14798e-014 2.54444e-014
rhumerus -28.9797 -6.00638 -77.6847
rradius 46.6234
rwrist 4.08546
rhand -17.8062 -27.3439
rfingers 7.12502
rthumb 8.4574 -57.1546
lclavicle -1.14798e-014 2.54444e-014
lhumerus -19.3391 5.00007 84.857
lradius 36.3737
lwrist -16.3048
lhand -13.9804 25.6335
lfingers 7.12502
lthumb 12.148 55.2608
rfemur -30.6553 -0.61975 20.0343
rtibia 40.2168
rfoot -6.30651 -20.2523
rtoes -1.31688
lfemur -4.97214 -0.166371 -20.7313
ltibia 15.1072
lfoot -9.78385 1.87368
ltoes -5.00265
478
root -22.8371 18.0776 -0.493124 78.0663 -89.1418 -71.6586
lowerback -0.684222 -4.43785 0.0990869
upperback -1.83459 -5.93729 3.36176
thorax -1.15439 -2.97343 3.40104
lowerneck -11.1731 -9.68568 -12.7067
upperneck 13.769 -12.3908 8.09495
head 7.36224 -6.02511 3.35507
rclavicle 1.83379e-014 3.97569e-015
rhumerus -29.2699 -5.76667 -77.9492
rradius 47.2905
rwrist 4.14509
rhand -17.8435 -27.1978
rfingers 7.12502
rthumb 8.42135 -57.0099
lclavicle 1.83379e-014 3.97569e-015
lhumerus -19.0127 4.06311 85.3129
lradius 36.9795
lwrist -15.4941
lhand -13.9289 25.7004
lfingers 7.12502
lthumb 12.1976 55.3248
rfemur -30.8595 -0.868806 20.2199
rtibia 38.4986
rfoot -6.54764 -20.3419
rtoes -1.35411
lfemur -4.58184 -0.11707 -20.9012
ltibia 14.8933
lfoot -9.91476 1.70342
ltoes -5.07824
479
root -22.953 18.0743 -0.467504 65.9766 -89.1456 -59.4277
lowerback -0.790629 -4.50209 -0.0108654
upperback -1.889 -6.02469 3.39026
thorax -1.13162 -3.01618 3.48368
lowerneck -11.1919 -9.70082 -12.7103
upperneck 13.7082 -12.4013 8.08867
head 7.34666 -6.02954 3.352
rclavicle -3.7123e-014 2.14687e-014
rhumerus -29.5588 -5.53274 -78.2107
rradius 47.9604
rwrist 4.2154
rhand -17.8816 -27.054
rfingers 7.12502
rthumb 8.38463 -56.8676
lclavicle -3.7123e-014 2.14687e-014
lhumerus -18.6991 3.12746 85.7645
lradius 37.5839
lwrist -14.6734
lhand -13.8707 25.7765
lfingers 7.12502
lthumb 12.2537 55.3975
rfemur -31.0439 -1.11278 20.4062
rtibia 36.785
rfoot -6.75866 -20.4116
rtoes -1.39575
lfemur -4.20801 -0.0619192 -21.0684
ltibia 14.6972
lfoot -10.0498 1.5213
ltoes -5.15353
